<svg width="32" height="32" viewBox="0 0 32 32" fill="none" xmlns="http://www.w3.org/2000/svg">
<path d="M21.2489 19.9958L25.0509 23.8003L23.7895 25.0625L19.9874 21.2581C19.2886 21.8151 18.5246 22.2418 17.6955 22.5381C16.819 22.8462 15.9189 23.0003 14.995 23.0003C13.55 23.0003 12.2056 22.6388 10.962 21.9158C9.75383 21.2047 8.80036 20.2447 8.10153 19.0358C7.36718 17.7914 7 16.4462 7 15.0003C7 13.5544 7.36718 12.2092 8.10153 10.9647C8.80036 9.75583 9.75383 8.80176 10.962 8.1025C12.2056 7.36769 13.55 7.00028 14.995 7.00028C16.44 7.00028 17.7844 7.36769 19.028 8.1025C20.2362 8.80176 21.1956 9.75583 21.9062 10.9647C22.6287 12.2092 22.99 13.5544 22.99 15.0003C22.99 15.9247 22.836 16.8255 22.5281 17.7025C22.232 18.5321 21.8056 19.2966 21.2489 19.9958ZM19.4544 19.3381C20.0111 18.7692 20.4434 18.1173 20.7514 17.3825C21.0594 16.624 21.2133 15.8299 21.2133 15.0003C21.2133 13.8744 20.9291 12.8255 20.3605 11.8536C19.8157 10.9173 19.0754 10.1766 18.1397 9.63139C17.1685 9.0625 16.1202 8.77806 14.995 8.77806C13.8698 8.77806 12.8215 9.0625 11.8503 9.63139C10.9146 10.1766 10.1743 10.9173 9.62947 11.8536C9.06093 12.8255 8.77667 13.8744 8.77667 15.0003C8.77667 16.1262 9.06093 17.1751 9.62947 18.1469C10.1743 19.0832 10.9146 19.824 11.8503 20.3692C12.8215 20.9381 13.8698 21.2225 14.995 21.2225C15.8241 21.2225 16.6177 21.0684 17.3757 20.7603C18.1101 20.4521 18.7615 20.0195 19.3301 19.4625L19.4544 19.3381Z" fill="#9CA3AF"/>
</svg>
